<?xml version="1.0" encoding="UTF-8"?>
<!DOCTYPE svg PUBLIC "-//W3C//DTD SVG 1.1//EN" "http://www.w3.org/Graphics/SVG/1.1/DTD/svg11.dtd" [
  <!ENTITY fill_color "#FFFFFF">
  <!ENTITY stroke_color "#000000">
]>

<svg xmlns="http://www.w3.org/2000/svg" xmlns:v="https://svgstorm.com"
viewBox = "0 0 1024 910"
width="1024"
height="910">
<g fill="None" fill-opacity="0.0" stroke="#7B8187" stroke-opacity="0.45" stroke-width="0.3"><path d="
M 0.00 447.00 
C 1.83 299.23 1.00 149.52 1.00 1.00
C 1.00 0.50 1.00 0.00 1.00 0.00
L 0.00 0.00
L 0.00 447.00 Z"/>
</g>
<g fill="None" fill-opacity="0.0" stroke="#7B8187" stroke-opacity="0.68" stroke-width="0.3"><path d="
M 1.00 1.00 
C 18.66 2.60 39.34 2.60 57.00 1.00
C 57.00 0.50 57.00 0.00 57.00 0.00
L 1.00 0.00
C 1.00 0.00 1.00 0.50 1.00 1.00 Z"/>
</g>
<g fill="None" fill-opacity="0.0" stroke="#7B8187" stroke-opacity="0.00" stroke-width="0.3"><path d="
M 57.00 1.00 
C 57.00 45.27 58.11 90.87 57.00 135.00 C 55.89 179.13 61.45 223.70 59.00 267.00
C 80.16 213.08 107.21 152.00 138.25 104.25 C 169.29 56.51 219.04 1.00 280.00 1.00
C 279.96 1.00 280.00 0.00 280.00 0.00
L 57.00 0.00
C 57.00 0.00 57.00 0.50 57.00 1.00 Z"/>
</g>
<g fill="None" fill-opacity="0.0" stroke="#7B8187" stroke-opacity="0.55" stroke-width="0.3"><path d="
M 280.00 1.00 
C 283.00 1.00 286.00 1.00 289.00 1.00
C 288.96 1.00 289.00 0.00 289.00 0.00
L 280.00 0.00
C 280.00 0.00 279.96 1.00 280.00 1.00 Z"/>
</g>
<g fill="None" fill-opacity="0.0" stroke="#7B8187" stroke-opacity="0.00" stroke-width="0.3"><path d="
M 289.00 1.00 
C 350.15 1.00 400.76 49.95 432.75 99.25 C 464.75 148.54 485.96 208.70 507.98 265.02 C 529.99 321.35 548.99 388.39 567.32 447.68 C 585.66 506.96 602.36 575.58 624.98 633.02 C 647.59 690.47 665.34 748.66 705.00 796.00
C 714.77 798.84 726.77 794.82 737.00 796.00 C 747.23 797.18 758.61 795.70 769.00 796.00 C 779.39 796.30 790.63 796.37 801.00 796.00 C 811.37 795.63 822.84 797.29 833.00 796.00 C 843.16 794.71 855.39 799.08 865.00 796.00
C 898.68 747.40 911.60 693.42 929.32 636.32 C 947.04 579.23 956.21 510.58 967.00 452.00
C 985.57 454.34 1004.60 454.92 1023.00 458.00
C 1008.41 575.85 979.76 691.68 931.00 798.00
C 939.79 794.59 951.41 799.43 961.00 798.00 C 970.59 796.57 982.06 798.54 992.00 798.00 C 1001.94 797.46 1012.96 798.01 1023.00 798.00
C 1023.50 798.00 1024.00 798.00 1024.00 798.00
L 1024.00 0.00
L 289.00 0.00
C 289.00 0.00 288.96 1.00 289.00 1.00 Z"/>
</g>
<g fill="None" fill-opacity="0.0" stroke="#7B8187" stroke-opacity="1.00" stroke-width="0.3"><path d="
M 0.00 447.00 
L 0.00 448.00
C 0.41 468.26 2.89 491.05 1.00 512.00
C 170.93 511.84 341.68 510.05 512.00 511.00
C 512.00 624.67 512.00 738.33 512.00 852.00
C 566.33 852.00 620.67 852.00 675.00 852.00
C 659.94 836.64 644.41 814.03 635.00 795.00
C 632.37 799.29 619.50 794.70 614.00 796.00 C 608.50 797.30 598.53 795.35 592.00 796.00 C 585.47 796.65 575.81 795.51 569.00 796.00
C 569.67 746.17 567.67 695.01 570.00 646.00
C 557.64 615.26 547.41 583.78 538.07 551.93 C 528.74 520.08 516.42 487.43 509.00 455.00
C 358.67 455.00 208.33 455.00 58.00 455.00
C 57.48 457.35 57.56 459.65 57.00 462.00
C 38.43 457.06 19.38 453.69 1.00 448.00
C 17.03 386.67 35.65 325.97 59.00 267.00
C 61.45 223.70 55.89 179.13 57.00 135.00 C 58.11 90.87 57.00 45.27 57.00 1.00
C 39.34 2.60 18.66 2.60 1.00 1.00
C 1.00 149.52 1.83 299.23 0.00 447.00 Z"/>
</g>
<g fill="None" fill-opacity="0.0" stroke="#5AA7DA" stroke-opacity="1.00" stroke-width="0.3"><path d="
M 59.00 267.00 
C 35.65 325.97 17.03 386.67 1.00 448.00
C 19.38 453.69 38.43 457.06 57.00 462.00
C 57.56 459.65 57.48 457.35 58.00 455.00
C 66.61 416.14 81.20 373.12 93.93 335.93 C 106.65 298.73 121.66 258.39 137.92 223.92 C 154.19 189.46 171.10 153.73 193.75 124.75 C 216.40 95.78 244.30 60.06 283.01 58.01 C 321.72 55.96 354.99 90.18 377.25 119.75 C 399.50 149.32 415.91 185.72 430.92 221.08 C 445.94 256.43 460.83 297.42 472.78 335.22 C 484.72 373.02 500.04 415.88 509.00 455.00
C 516.42 487.43 528.74 520.08 538.07 551.93 C 547.41 583.78 557.64 615.26 570.00 646.00
C 580.13 671.19 588.97 698.23 599.92 723.08 C 610.88 747.92 623.04 770.81 635.00 795.00
C 644.41 814.03 659.94 836.64 675.00 852.00
C 705.54 883.15 744.63 909.00 789.00 909.00
C 792.00 909.00 795.00 909.00 798.00 909.00
C 838.89 909.00 870.87 881.98 897.00 852.00
C 910.03 837.05 922.86 815.60 931.00 798.00
C 979.76 691.68 1008.41 575.85 1023.00 458.00
C 1004.60 454.92 985.57 454.34 967.00 452.00
C 956.21 510.58 947.04 579.23 929.32 636.32 C 911.60 693.42 898.68 747.40 865.00 796.00
C 845.75 823.78 824.00 856.01 786.00 852.00 C 747.99 847.99 727.93 823.37 705.00 796.00
C 665.34 748.66 647.59 690.47 624.98 633.02 C 602.36 575.58 585.66 506.96 567.32 447.68 C 548.99 388.39 529.99 321.35 507.98 265.02 C 485.96 208.70 464.75 148.54 432.75 99.25 C 400.76 49.95 350.15 1.00 289.00 1.00
C 286.00 1.00 283.00 1.00 280.00 1.00
C 219.04 1.00 169.29 56.51 138.25 104.25 C 107.21 152.00 80.16 213.08 59.00 267.00 Z"/>
</g>
<g fill="None" fill-opacity="0.0" stroke="#7B8187" stroke-opacity="0.00" stroke-width="0.3"><path d="
M 58.00 455.00 
C 208.33 455.00 358.67 455.00 509.00 455.00
C 500.04 415.88 484.72 373.02 472.78 335.22 C 460.83 297.42 445.94 256.43 430.92 221.08 C 415.91 185.72 399.50 149.32 377.25 119.75 C 354.99 90.18 321.72 55.96 283.01 58.01 C 244.30 60.06 216.40 95.78 193.75 124.75 C 171.10 153.73 154.19 189.46 137.92 223.92 C 121.66 258.39 106.65 298.73 93.93 335.93 C 81.20 373.12 66.61 416.14 58.00 455.00 Z"/>
</g>
<g fill="None" fill-opacity="0.0" stroke="#7B8187" stroke-opacity="0.41" stroke-width="0.3"><path d="
M 0.00 512.00 
C 0.50 512.00 1.00 512.00 1.00 512.00
C 2.89 491.05 0.41 468.26 0.00 448.00
L 0.00 512.00 Z"/>
</g>
<g fill="None" fill-opacity="0.0" stroke="#7B8187" stroke-opacity="0.00" stroke-width="0.3"><path d="
M 1.00 512.00 
C 1.00 512.00 0.50 512.00 0.00 512.00
L 0.00 910.00
L 789.00 910.00
C 789.00 909.50 789.00 909.00 789.00 909.00
C 744.63 909.00 705.54 883.15 675.00 852.00
C 620.67 852.00 566.33 852.00 512.00 852.00
C 512.00 738.33 512.00 624.67 512.00 511.00
C 341.68 510.05 170.93 511.84 1.00 512.00 Z"/>
</g>
<g fill="None" fill-opacity="0.0" stroke="#7B8187" stroke-opacity="0.02" stroke-width="0.3"><path d="
M 635.00 795.00 
C 623.04 770.81 610.88 747.92 599.92 723.08 C 588.97 698.23 580.13 671.19 570.00 646.00
C 567.67 695.01 569.67 746.17 569.00 796.00
C 575.81 795.51 585.47 796.65 592.00 796.00 C 598.53 795.35 608.50 797.30 614.00 796.00 C 619.50 794.70 632.37 799.29 635.00 795.00 Z"/>
</g>
<g fill="None" fill-opacity="0.0" stroke="#7B8187" stroke-opacity="1.00" stroke-width="0.3"><path d="
M 865.00 796.00 
C 855.39 799.08 843.16 794.71 833.00 796.00 C 822.84 797.29 811.37 795.63 801.00 796.00 C 790.63 796.37 779.39 796.30 769.00 796.00 C 758.61 795.70 747.23 797.18 737.00 796.00 C 726.77 794.82 714.77 798.84 705.00 796.00
C 727.93 823.37 747.99 847.99 786.00 852.00 C 824.00 856.01 845.75 823.78 865.00 796.00 Z"/>
</g>
<g fill="None" fill-opacity="0.0" stroke="#7B8187" stroke-opacity="1.00" stroke-width="0.3"><path d="
M 897.00 852.00 
C 906.49 849.16 917.98 853.06 928.00 852.00 C 938.02 850.94 949.80 852.12 960.00 852.00 C 970.20 851.88 980.82 851.18 991.00 852.00 C 1001.18 852.82 1013.05 849.79 1023.00 852.00
C 1021.75 843.32 1023.17 833.79 1023.00 825.00 C 1022.83 816.21 1022.21 806.76 1023.00 798.00
C 1012.96 798.01 1001.94 797.46 992.00 798.00 C 982.06 798.54 970.59 796.57 961.00 798.00 C 951.41 799.43 939.79 794.59 931.00 798.00
C 922.86 815.60 910.03 837.05 897.00 852.00 Z"/>
</g>
<g fill="None" fill-opacity="0.0" stroke="#7B8187" stroke-opacity="0.43" stroke-width="0.3"><path d="
M 1023.00 852.00 
C 1023.05 852.35 1023.67 852.84 1024.00 853.00
L 1024.00 798.00
C 1024.00 798.00 1023.50 798.00 1023.00 798.00
C 1022.21 806.76 1022.83 816.21 1023.00 825.00 C 1023.17 833.79 1021.75 843.32 1023.00 852.00 Z"/>
</g>
<g fill="None" fill-opacity="0.0" stroke="#7B8187" stroke-opacity="0.02" stroke-width="0.3"><path d="
M 798.00 909.00 
C 798.04 909.00 798.00 910.00 798.00 910.00
L 1024.00 910.00
L 1024.00 853.00
C 1023.67 852.84 1023.05 852.35 1023.00 852.00
C 1013.05 849.79 1001.18 852.82 991.00 852.00 C 980.82 851.18 970.20 851.88 960.00 852.00 C 949.80 852.12 938.02 850.94 928.00 852.00 C 917.98 853.06 906.49 849.16 897.00 852.00
C 870.87 881.98 838.89 909.00 798.00 909.00 Z"/>
</g>
<g fill="None" fill-opacity="0.0" stroke="#7B8187" stroke-opacity="0.57" stroke-width="0.3"><path d="
M 789.00 910.00 
L 798.00 910.00
C 798.00 910.00 798.04 909.00 798.00 909.00
C 795.00 909.00 792.00 909.00 789.00 909.00
C 789.00 909.00 789.00 909.50 789.00 910.00 Z"/>
</g>
<g fill="&stroke_color;" fill-opacity="0.45" stroke="None">
<path d="
M 0.00 447.00 
C 1.83 299.23 1.00 149.52 1.00 1.00
C 1.00 0.50 1.00 0.00 1.00 0.00
L 0.00 0.00
L 0.00 447.00 Z"/>
</g>
<g fill="&stroke_color;" fill-opacity="0.68" stroke="None">
<path d="
M 1.00 1.00 
C 18.66 2.60 39.34 2.60 57.00 1.00
C 57.00 0.50 57.00 0.00 57.00 0.00
L 1.00 0.00
C 1.00 0.00 1.00 0.50 1.00 1.00 Z"/>
</g>
<g fill="&stroke_color;" fill-opacity="0.00" stroke="None">
<path d="
M 57.00 1.00 
C 57.00 45.27 58.11 90.87 57.00 135.00 C 55.89 179.13 61.45 223.70 59.00 267.00
C 80.16 213.08 107.21 152.00 138.25 104.25 C 169.29 56.51 219.04 1.00 280.00 1.00
C 279.96 1.00 280.00 0.00 280.00 0.00
L 57.00 0.00
C 57.00 0.00 57.00 0.50 57.00 1.00 Z"/>
</g>
<g fill="&stroke_color;" fill-opacity="0.55" stroke="None">
<path d="
M 280.00 1.00 
C 283.00 1.00 286.00 1.00 289.00 1.00
C 288.96 1.00 289.00 0.00 289.00 0.00
L 280.00 0.00
C 280.00 0.00 279.96 1.00 280.00 1.00 Z"/>
</g>
<g fill="&stroke_color;" fill-opacity="0.00" stroke="None">
<path d="
M 289.00 1.00 
C 350.15 1.00 400.76 49.95 432.75 99.25 C 464.75 148.54 485.96 208.70 507.98 265.02 C 529.99 321.35 548.99 388.39 567.32 447.68 C 585.66 506.96 602.36 575.58 624.98 633.02 C 647.59 690.47 665.34 748.66 705.00 796.00
C 714.77 798.84 726.77 794.82 737.00 796.00 C 747.23 797.18 758.61 795.70 769.00 796.00 C 779.39 796.30 790.63 796.37 801.00 796.00 C 811.37 795.63 822.84 797.29 833.00 796.00 C 843.16 794.71 855.39 799.08 865.00 796.00
C 898.68 747.40 911.60 693.42 929.32 636.32 C 947.04 579.23 956.21 510.58 967.00 452.00
C 985.57 454.34 1004.60 454.92 1023.00 458.00
C 1008.41 575.85 979.76 691.68 931.00 798.00
C 939.79 794.59 951.41 799.43 961.00 798.00 C 970.59 796.57 982.06 798.54 992.00 798.00 C 1001.94 797.46 1012.96 798.01 1023.00 798.00
C 1023.50 798.00 1024.00 798.00 1024.00 798.00
L 1024.00 0.00
L 289.00 0.00
C 289.00 0.00 288.96 1.00 289.00 1.00 Z"/>
</g>
<g fill="&stroke_color;" fill-opacity="1.00" stroke="None">
<path d="
M 0.00 447.00 
L 0.00 448.00
C 0.41 468.26 2.89 491.05 1.00 512.00
C 170.93 511.84 341.68 510.05 512.00 511.00
C 512.00 624.67 512.00 738.33 512.00 852.00
C 566.33 852.00 620.67 852.00 675.00 852.00
C 659.94 836.64 644.41 814.03 635.00 795.00
C 632.37 799.29 619.50 794.70 614.00 796.00 C 608.50 797.30 598.53 795.35 592.00 796.00 C 585.47 796.65 575.81 795.51 569.00 796.00
C 569.67 746.17 567.67 695.01 570.00 646.00
C 557.64 615.26 547.41 583.78 538.07 551.93 C 528.74 520.08 516.42 487.43 509.00 455.00
C 358.67 455.00 208.33 455.00 58.00 455.00
C 57.48 457.35 57.56 459.65 57.00 462.00
C 38.43 457.06 19.38 453.69 1.00 448.00
C 17.03 386.67 35.65 325.97 59.00 267.00
C 61.45 223.70 55.89 179.13 57.00 135.00 C 58.11 90.87 57.00 45.27 57.00 1.00
C 39.34 2.60 18.66 2.60 1.00 1.00
C 1.00 149.52 1.83 299.23 0.00 447.00 Z"/>
</g>
<g fill="&fill_color;" fill-opacity="1.00" stroke="None">
<path d="
M 59.00 267.00 
C 35.65 325.97 17.03 386.67 1.00 448.00
C 19.38 453.69 38.43 457.06 57.00 462.00
C 57.56 459.65 57.48 457.35 58.00 455.00
C 66.61 416.14 81.20 373.12 93.93 335.93 C 106.65 298.73 121.66 258.39 137.92 223.92 C 154.19 189.46 171.10 153.73 193.75 124.75 C 216.40 95.78 244.30 60.06 283.01 58.01 C 321.72 55.96 354.99 90.18 377.25 119.75 C 399.50 149.32 415.91 185.72 430.92 221.08 C 445.94 256.43 460.83 297.42 472.78 335.22 C 484.72 373.02 500.04 415.88 509.00 455.00
C 516.42 487.43 528.74 520.08 538.07 551.93 C 547.41 583.78 557.64 615.26 570.00 646.00
C 580.13 671.19 588.97 698.23 599.92 723.08 C 610.88 747.92 623.04 770.81 635.00 795.00
C 644.41 814.03 659.94 836.64 675.00 852.00
C 705.54 883.15 744.63 909.00 789.00 909.00
C 792.00 909.00 795.00 909.00 798.00 909.00
C 838.89 909.00 870.87 881.98 897.00 852.00
C 910.03 837.05 922.86 815.60 931.00 798.00
C 979.76 691.68 1008.41 575.85 1023.00 458.00
C 1004.60 454.92 985.57 454.34 967.00 452.00
C 956.21 510.58 947.04 579.23 929.32 636.32 C 911.60 693.42 898.68 747.40 865.00 796.00
C 845.75 823.78 824.00 856.01 786.00 852.00 C 747.99 847.99 727.93 823.37 705.00 796.00
C 665.34 748.66 647.59 690.47 624.98 633.02 C 602.36 575.58 585.66 506.96 567.32 447.68 C 548.99 388.39 529.99 321.35 507.98 265.02 C 485.96 208.70 464.75 148.54 432.75 99.25 C 400.76 49.95 350.15 1.00 289.00 1.00
C 286.00 1.00 283.00 1.00 280.00 1.00
C 219.04 1.00 169.29 56.51 138.25 104.25 C 107.21 152.00 80.16 213.08 59.00 267.00 Z"/>
</g>
<g fill="&stroke_color;" fill-opacity="0.00" stroke="None">
<path d="
M 58.00 455.00 
C 208.33 455.00 358.67 455.00 509.00 455.00
C 500.04 415.88 484.72 373.02 472.78 335.22 C 460.83 297.42 445.94 256.43 430.92 221.08 C 415.91 185.72 399.50 149.32 377.25 119.75 C 354.99 90.18 321.72 55.96 283.01 58.01 C 244.30 60.06 216.40 95.78 193.75 124.75 C 171.10 153.73 154.19 189.46 137.92 223.92 C 121.66 258.39 106.65 298.73 93.93 335.93 C 81.20 373.12 66.61 416.14 58.00 455.00 Z"/>
</g>
<g fill="&stroke_color;" fill-opacity="0.41" stroke="None">
<path d="
M 0.00 512.00 
C 0.50 512.00 1.00 512.00 1.00 512.00
C 2.89 491.05 0.41 468.26 0.00 448.00
L 0.00 512.00 Z"/>
</g>
<g fill="&stroke_color;" fill-opacity="0.00" stroke="None">
<path d="
M 1.00 512.00 
C 1.00 512.00 0.50 512.00 0.00 512.00
L 0.00 910.00
L 789.00 910.00
C 789.00 909.50 789.00 909.00 789.00 909.00
C 744.63 909.00 705.54 883.15 675.00 852.00
C 620.67 852.00 566.33 852.00 512.00 852.00
C 512.00 738.33 512.00 624.67 512.00 511.00
C 341.68 510.05 170.93 511.84 1.00 512.00 Z"/>
</g>
<g fill="&stroke_color;" fill-opacity="0.02" stroke="None">
<path d="
M 635.00 795.00 
C 623.04 770.81 610.88 747.92 599.92 723.08 C 588.97 698.23 580.13 671.19 570.00 646.00
C 567.67 695.01 569.67 746.17 569.00 796.00
C 575.81 795.51 585.47 796.65 592.00 796.00 C 598.53 795.35 608.50 797.30 614.00 796.00 C 619.50 794.70 632.37 799.29 635.00 795.00 Z"/>
</g>
<g fill="&stroke_color;" fill-opacity="1.00" stroke="None">
<path d="
M 865.00 796.00 
C 855.39 799.08 843.16 794.71 833.00 796.00 C 822.84 797.29 811.37 795.63 801.00 796.00 C 790.63 796.37 779.39 796.30 769.00 796.00 C 758.61 795.70 747.23 797.18 737.00 796.00 C 726.77 794.82 714.77 798.84 705.00 796.00
C 727.93 823.37 747.99 847.99 786.00 852.00 C 824.00 856.01 845.75 823.78 865.00 796.00 Z"/>
</g>
<g fill="&stroke_color;" fill-opacity="1.00" stroke="None">
<path d="
M 897.00 852.00 
C 906.49 849.16 917.98 853.06 928.00 852.00 C 938.02 850.94 949.80 852.12 960.00 852.00 C 970.20 851.88 980.82 851.18 991.00 852.00 C 1001.18 852.82 1013.05 849.79 1023.00 852.00
C 1021.75 843.32 1023.17 833.79 1023.00 825.00 C 1022.83 816.21 1022.21 806.76 1023.00 798.00
C 1012.96 798.01 1001.94 797.46 992.00 798.00 C 982.06 798.54 970.59 796.57 961.00 798.00 C 951.41 799.43 939.79 794.59 931.00 798.00
C 922.86 815.60 910.03 837.05 897.00 852.00 Z"/>
</g>
<g fill="&stroke_color;" fill-opacity="0.43" stroke="None">
<path d="
M 1023.00 852.00 
C 1023.05 852.35 1023.67 852.84 1024.00 853.00
L 1024.00 798.00
C 1024.00 798.00 1023.50 798.00 1023.00 798.00
C 1022.21 806.76 1022.83 816.21 1023.00 825.00 C 1023.17 833.79 1021.75 843.32 1023.00 852.00 Z"/>
</g>
<g fill="&stroke_color;" fill-opacity="0.02" stroke="None">
<path d="
M 798.00 909.00 
C 798.04 909.00 798.00 910.00 798.00 910.00
L 1024.00 910.00
L 1024.00 853.00
C 1023.67 852.84 1023.05 852.35 1023.00 852.00
C 1013.05 849.79 1001.18 852.82 991.00 852.00 C 980.82 851.18 970.20 851.88 960.00 852.00 C 949.80 852.12 938.02 850.94 928.00 852.00 C 917.98 853.06 906.49 849.16 897.00 852.00
C 870.87 881.98 838.89 909.00 798.00 909.00 Z"/>
</g>
<g fill="&stroke_color;" fill-opacity="0.57" stroke="None">
<path d="
M 789.00 910.00 
L 798.00 910.00
C 798.00 910.00 798.04 909.00 798.00 909.00
C 795.00 909.00 792.00 909.00 789.00 909.00
C 789.00 909.00 789.00 909.50 789.00 910.00 Z"/>
</g>
</svg>